<?xml version="1.0" standalone="no"?>
<!DOCTYPE svg PUBLIC "-//W3C//DTD SVG 20010904//EN"
 "http://www.w3.org/TR/2001/REC-SVG-20010904/DTD/svg10.dtd">
<svg version="1.0" xmlns="http://www.w3.org/2000/svg"
 width="200.000000pt" height="200.000000pt" viewBox="0 0 200.000000 200.000000"
 preserveAspectRatio="xMidYMid meet">

<g transform="translate(0.000000,200.000000) scale(0.100000,-0.100000)"
fill="#000000" stroke="none">
<path d="M660 1045 c0 -32 2 -35 28 -34 23 2 24 2 5 6 -27 5 -30 20 -5 26 16
4 16 5 0 6 -26 2 -22 19 5 24 19 4 18 4 -5 6 -26 1 -28 -2 -28 -34z"/>
<path d="M987 1045 c-9 -19 -12 -35 -7 -35 5 0 12 11 16 25 8 32 20 32 28 -1
4 -15 9 -24 12 -22 6 7 -16 68 -25 68 -4 0 -15 -16 -24 -35z"/>
<path d="M1060 1048 c0 -21 2 -38 4 -38 9 0 12 50 5 62 -6 8 -9 -1 -9 -24z"/>
<path d="M731 1033 c1 -21 3 -23 6 -7 3 15 12 21 33 21 21 0 30 -6 33 -21 3
-16 5 -14 6 7 1 25 -2 27 -39 27 -37 0 -40 -2 -39 -27z"/>
<path d="M829 1028 c-3 -22 -1 -34 4 -29 5 5 7 21 5 37 -3 27 -4 26 -9 -8z"/>
<path d="M892 1035 c0 -16 2 -22 5 -12 2 9 2 23 0 30 -3 6 -5 -1 -5 -18z"/>
<path d="M921 1055 c0 -5 5 -20 12 -32 13 -23 13 -23 25 10 10 28 10 30 -2 14
-14 -18 -15 -18 -25 0 -6 10 -10 14 -10 8z"/>
<path d="M1098 1033 c5 -21 7 -23 10 -9 2 10 0 22 -6 28 -6 6 -7 0 -4 -19z"/>
<path d="M1130 1035 c0 -14 2 -25 4 -25 2 0 6 11 8 25 3 14 1 25 -3 25 -5 0
-9 -11 -9 -25z"/>
<path d="M1168 1033 c5 -21 7 -23 10 -9 2 10 0 22 -6 28 -6 6 -7 0 -4 -19z"/>
<path d="M860 1031 c0 -6 4 -13 10 -16 6 -3 7 1 4 9 -7 18 -14 21 -14 7z"/>
<path d="M480 965 c-11 -13 -10 -14 3 -9 11 4 17 -2 20 -23 l4 -28 2 27 c1 22
5 26 19 21 15 -6 15 -5 3 10 -17 21 -35 22 -51 2z"/>
<path d="M661 948 c2 -30 2 -31 6 -5 3 19 10 27 25 27 16 0 19 -5 16 -25 -3
-14 -1 -25 4 -25 5 0 8 12 6 28 -2 21 -9 28 -30 30 -26 3 -28 1 -27 -30z"/>
<path d="M910 965 c0 -9 8 -19 18 -22 9 -4 20 -11 24 -17 5 -7 8 -6 8 2 0 8
-9 16 -20 19 -25 7 -26 20 -2 26 13 4 11 5 -5 6 -15 1 -23 -5 -23 -14z"/>
<path d="M1351 948 c0 -18 3 -27 6 -20 2 6 14 12 24 12 11 0 17 -4 14 -10 -3
-5 -1 -10 5 -10 7 0 9 7 6 16 -3 9 -6 22 -6 30 0 8 -10 14 -25 14 -22 0 -25
-4 -24 -32z m39 12 c0 -5 -7 -10 -15 -10 -8 0 -15 5 -15 10 0 6 7 10 15 10 8
0 15 -4 15 -10z"/>
<path d="M800 960 c0 -5 5 -10 10 -10 6 0 10 5 10 10 0 6 -4 10 -10 10 -5 0
-10 -4 -10 -10z"/>
<path d="M772 940 c0 -14 2 -19 5 -12 2 6 2 18 0 25 -3 6 -5 1 -5 -13z"/>
<path d="M877 940 c3 -11 7 -20 9 -20 2 0 4 9 4 20 0 11 -4 20 -9 20 -5 0 -7
-9 -4 -20z"/>
<path d="M973 945 c-3 -9 -3 -18 -1 -21 3 -3 8 4 11 16 6 23 -1 27 -10 5z"/>
<path d="M1032 940 c0 -14 2 -19 5 -12 2 6 2 18 0 25 -3 6 -5 1 -5 -13z"/>
<path d="M1063 945 c-3 -9 -3 -18 -1 -21 3 -3 8 4 11 16 6 23 -1 27 -10 5z"/>
<path d="M1130 940 c0 -11 2 -20 4 -20 2 0 6 9 9 20 3 11 1 20 -4 20 -5 0 -9
-9 -9 -20z"/>
<path d="M1167 939 c4 -13 8 -18 11 -10 2 7 -1 18 -6 23 -8 8 -9 4 -5 -13z"/>
<path d="M1194 949 c-10 -17 23 -46 37 -32 8 8 6 11 -7 10 -12 -1 -19 4 -18
16 2 20 -2 22 -12 6z"/>
<path d="M1254 949 c-3 -6 2 -18 12 -27 17 -16 17 -16 5 0 -7 9 -10 22 -6 28
3 5 4 10 1 10 -3 0 -8 -5 -12 -11z"/>
<path d="M1427 953 c-12 -12 -7 -31 9 -37 14 -5 15 -4 5 8 -7 8 -10 20 -6 26
7 11 2 14 -8 3z"/>
<path d="M1457 940 c3 -11 7 -20 9 -20 2 0 4 9 4 20 0 11 -4 20 -9 20 -5 0 -7
-9 -4 -20z"/>
<path d="M1490 940 c0 -11 2 -20 4 -20 2 0 6 9 9 20 3 11 1 20 -4 20 -5 0 -9
-9 -9 -20z"/>
<path d="M1524 952 c4 -7 2 -21 -5 -30 -12 -15 -11 -15 6 0 16 15 17 20 6 30
-11 11 -13 10 -7 0z"/>
<path d="M1560 937 c0 -7 8 -13 19 -13 11 0 17 5 14 13 -3 7 -11 13 -19 13 -8
0 -14 -6 -14 -13z"/>
<path d="M740 931 c0 -6 4 -13 10 -16 6 -3 7 1 4 9 -7 18 -14 21 -14 7z"/>
</g>
</svg>
